<mxfile host="app.diagrams.net" modified="2024-01-25T04:32:37.570Z" agent="Mozilla/5.0 (Windows NT 10.0; Win64; x64) AppleWebKit/537.36 (KHTML, like Gecko) Chrome/120.0.0.0 Safari/537.36 Edg/120.0.0.0" etag="eNwgBw3KfOU1LF7YY3_c" version="22.1.22" type="github">
  <diagram id="kgpKYQtTHZ0yAKxKKP6v" name="Page-1">
    <mxGraphModel dx="841" dy="495" grid="1" gridSize="10" guides="1" tooltips="1" connect="1" arrows="1" fold="1" page="1" pageScale="1" pageWidth="850" pageHeight="1100" math="0" shadow="0">
      <root>
        <mxCell id="0" />
        <mxCell id="1" parent="0" />
        <mxCell id="9SDQsjOLmnMu524UX8oW-17" value="Pool" style="swimlane;html=1;childLayout=stackLayout;resizeParent=1;resizeParentMax=0;horizontal=0;startSize=20;horizontalStack=0;" vertex="1" parent="1">
          <mxGeometry x="20" y="20" width="810" height="720" as="geometry" />
        </mxCell>
        <mxCell id="9SDQsjOLmnMu524UX8oW-29" value="Lane 2" style="swimlane;html=1;startSize=20;horizontal=0;" vertex="1" parent="9SDQsjOLmnMu524UX8oW-17">
          <mxGeometry x="20" width="790" height="120" as="geometry" />
        </mxCell>
        <mxCell id="9SDQsjOLmnMu524UX8oW-40" value="" style="edgeStyle=orthogonalEdgeStyle;rounded=0;orthogonalLoop=1;jettySize=auto;html=1;" edge="1" parent="9SDQsjOLmnMu524UX8oW-29" source="9SDQsjOLmnMu524UX8oW-37" target="9SDQsjOLmnMu524UX8oW-39">
          <mxGeometry relative="1" as="geometry" />
        </mxCell>
        <mxCell id="9SDQsjOLmnMu524UX8oW-37" value="Polymer" style="strokeWidth=1;html=1;shape=mxgraph.flowchart.terminator;whiteSpace=wrap;" vertex="1" parent="9SDQsjOLmnMu524UX8oW-29">
          <mxGeometry x="360" y="20" width="100" height="60" as="geometry" />
        </mxCell>
        <mxCell id="9SDQsjOLmnMu524UX8oW-39" value="SORTING" style="whiteSpace=wrap;html=1;strokeWidth=1;" vertex="1" parent="9SDQsjOLmnMu524UX8oW-29">
          <mxGeometry x="480" y="30" width="120" height="60" as="geometry" />
        </mxCell>
        <mxCell id="9SDQsjOLmnMu524UX8oW-58" value="Polymer 1" style="strokeWidth=1;html=1;shape=mxgraph.flowchart.terminator;whiteSpace=wrap;" vertex="1" parent="9SDQsjOLmnMu524UX8oW-29">
          <mxGeometry x="640" y="30" width="100" height="60" as="geometry" />
        </mxCell>
        <mxCell id="9SDQsjOLmnMu524UX8oW-60" value="Lane 2" style="swimlane;html=1;startSize=20;horizontal=0;" vertex="1" parent="9SDQsjOLmnMu524UX8oW-17">
          <mxGeometry x="20" y="120" width="790" height="120" as="geometry" />
        </mxCell>
        <mxCell id="9SDQsjOLmnMu524UX8oW-61" value="" style="edgeStyle=orthogonalEdgeStyle;rounded=0;orthogonalLoop=1;jettySize=auto;html=1;" edge="1" parent="9SDQsjOLmnMu524UX8oW-60" source="9SDQsjOLmnMu524UX8oW-62" target="9SDQsjOLmnMu524UX8oW-63">
          <mxGeometry relative="1" as="geometry" />
        </mxCell>
        <mxCell id="9SDQsjOLmnMu524UX8oW-62" value="Polymer" style="strokeWidth=1;html=1;shape=mxgraph.flowchart.terminator;whiteSpace=wrap;" vertex="1" parent="9SDQsjOLmnMu524UX8oW-60">
          <mxGeometry x="360" y="20" width="100" height="60" as="geometry" />
        </mxCell>
        <mxCell id="9SDQsjOLmnMu524UX8oW-63" value="SORTING" style="whiteSpace=wrap;html=1;strokeWidth=1;" vertex="1" parent="9SDQsjOLmnMu524UX8oW-60">
          <mxGeometry x="491" y="20" width="79" height="60" as="geometry" />
        </mxCell>
        <mxCell id="9SDQsjOLmnMu524UX8oW-64" value="Polymer 1" style="strokeWidth=1;html=1;shape=mxgraph.flowchart.terminator;whiteSpace=wrap;" vertex="1" parent="9SDQsjOLmnMu524UX8oW-60">
          <mxGeometry x="640" y="30" width="100" height="60" as="geometry" />
        </mxCell>
        <mxCell id="9SDQsjOLmnMu524UX8oW-22" value="Post Consumer Coated Wood Waste" style="swimlane;html=1;startSize=20;horizontal=0;" vertex="1" parent="9SDQsjOLmnMu524UX8oW-17">
          <mxGeometry x="20" y="240" width="790" height="120" as="geometry" />
        </mxCell>
        <mxCell id="9SDQsjOLmnMu524UX8oW-23" value="" style="edgeStyle=orthogonalEdgeStyle;rounded=0;orthogonalLoop=1;jettySize=auto;html=1;" edge="1" parent="9SDQsjOLmnMu524UX8oW-22" source="9SDQsjOLmnMu524UX8oW-24" target="9SDQsjOLmnMu524UX8oW-25">
          <mxGeometry relative="1" as="geometry" />
        </mxCell>
        <mxCell id="9SDQsjOLmnMu524UX8oW-24" value="" style="ellipse;whiteSpace=wrap;html=1;" vertex="1" parent="9SDQsjOLmnMu524UX8oW-22">
          <mxGeometry x="40" y="40" width="40" height="40" as="geometry" />
        </mxCell>
        <mxCell id="9SDQsjOLmnMu524UX8oW-25" value="COLLECTION" style="rounded=0;whiteSpace=wrap;html=1;fontFamily=Helvetica;fontSize=12;fontColor=#000000;align=center;" vertex="1" parent="9SDQsjOLmnMu524UX8oW-22">
          <mxGeometry x="120" y="30" width="80" height="60" as="geometry" />
        </mxCell>
        <mxCell id="9SDQsjOLmnMu524UX8oW-31" value="SEPARATION" style="rounded=0;whiteSpace=wrap;html=1;fontFamily=Helvetica;fontSize=12;fontColor=#000000;align=center;" vertex="1" parent="9SDQsjOLmnMu524UX8oW-22">
          <mxGeometry x="300" y="30" width="80" height="60" as="geometry" />
        </mxCell>
        <mxCell id="9SDQsjOLmnMu524UX8oW-18" value="" style="edgeStyle=orthogonalEdgeStyle;rounded=0;orthogonalLoop=1;jettySize=auto;html=1;dashed=1;endArrow=none;endFill=0;" edge="1" parent="9SDQsjOLmnMu524UX8oW-22" source="9SDQsjOLmnMu524UX8oW-25" target="9SDQsjOLmnMu524UX8oW-31">
          <mxGeometry relative="1" as="geometry" />
        </mxCell>
        <mxCell id="9SDQsjOLmnMu524UX8oW-33" value="Lane 3" style="swimlane;html=1;startSize=20;horizontal=0;" vertex="1" parent="9SDQsjOLmnMu524UX8oW-17">
          <mxGeometry x="20" y="360" width="790" height="120" as="geometry" />
        </mxCell>
        <mxCell id="9SDQsjOLmnMu524UX8oW-45" value="Wood" style="strokeWidth=1;html=1;shape=mxgraph.flowchart.terminator;whiteSpace=wrap;" vertex="1" parent="9SDQsjOLmnMu524UX8oW-33">
          <mxGeometry x="370" y="40" width="100" height="60" as="geometry" />
        </mxCell>
        <mxCell id="9SDQsjOLmnMu524UX8oW-43" value="Lane 3" style="swimlane;html=1;startSize=20;horizontal=0;" vertex="1" parent="9SDQsjOLmnMu524UX8oW-17">
          <mxGeometry x="20" y="480" width="790" height="120" as="geometry" />
        </mxCell>
        <mxCell id="9SDQsjOLmnMu524UX8oW-46" value="SORTING" style="whiteSpace=wrap;html=1;strokeWidth=1;" vertex="1" parent="9SDQsjOLmnMu524UX8oW-43">
          <mxGeometry x="450" y="30" width="120" height="60" as="geometry" />
        </mxCell>
        <mxCell id="9SDQsjOLmnMu524UX8oW-47" value="Lane 3" style="swimlane;html=1;startSize=20;horizontal=0;" vertex="1" parent="9SDQsjOLmnMu524UX8oW-17">
          <mxGeometry x="20" y="600" width="790" height="120" as="geometry" />
        </mxCell>
        <mxCell id="9SDQsjOLmnMu524UX8oW-48" value="" style="edgeStyle=orthogonalEdgeStyle;rounded=0;orthogonalLoop=1;jettySize=auto;html=1;" edge="1" parent="9SDQsjOLmnMu524UX8oW-47" source="9SDQsjOLmnMu524UX8oW-49" target="9SDQsjOLmnMu524UX8oW-50">
          <mxGeometry relative="1" as="geometry" />
        </mxCell>
        <mxCell id="9SDQsjOLmnMu524UX8oW-49" value="Wood" style="strokeWidth=1;html=1;shape=mxgraph.flowchart.terminator;whiteSpace=wrap;" vertex="1" parent="9SDQsjOLmnMu524UX8oW-47">
          <mxGeometry x="280" y="30" width="100" height="60" as="geometry" />
        </mxCell>
        <mxCell id="9SDQsjOLmnMu524UX8oW-50" value="SORTING" style="whiteSpace=wrap;html=1;strokeWidth=1;" vertex="1" parent="9SDQsjOLmnMu524UX8oW-47">
          <mxGeometry x="450" y="30" width="120" height="60" as="geometry" />
        </mxCell>
        <mxCell id="9SDQsjOLmnMu524UX8oW-51" value="" style="edgeStyle=orthogonalEdgeStyle;rounded=0;orthogonalLoop=1;jettySize=auto;html=1;endArrow=classic;endFill=1;entryX=0;entryY=0.5;entryDx=0;entryDy=0;entryPerimeter=0;exitX=0.5;exitY=1;exitDx=0;exitDy=0;" edge="1" parent="9SDQsjOLmnMu524UX8oW-17" source="9SDQsjOLmnMu524UX8oW-31" target="9SDQsjOLmnMu524UX8oW-45">
          <mxGeometry relative="1" as="geometry">
            <mxPoint x="230" y="190" as="sourcePoint" />
            <mxPoint x="310" y="190" as="targetPoint" />
          </mxGeometry>
        </mxCell>
        <mxCell id="9SDQsjOLmnMu524UX8oW-30" value="" style="edgeStyle=orthogonalEdgeStyle;rounded=0;orthogonalLoop=1;jettySize=auto;html=1;endArrow=classic;endFill=1;entryX=0;entryY=0.5;entryDx=0;entryDy=0;entryPerimeter=0;" edge="1" parent="9SDQsjOLmnMu524UX8oW-17" source="9SDQsjOLmnMu524UX8oW-31" target="9SDQsjOLmnMu524UX8oW-62">
          <mxGeometry relative="1" as="geometry">
            <mxPoint x="320" y="60" as="targetPoint" />
          </mxGeometry>
        </mxCell>
        <mxCell id="9SDQsjOLmnMu524UX8oW-44" value="" style="edgeStyle=orthogonalEdgeStyle;rounded=0;orthogonalLoop=1;jettySize=auto;html=1;" edge="1" parent="9SDQsjOLmnMu524UX8oW-17" source="9SDQsjOLmnMu524UX8oW-45" target="9SDQsjOLmnMu524UX8oW-46">
          <mxGeometry relative="1" as="geometry" />
        </mxCell>
        <mxCell id="9SDQsjOLmnMu524UX8oW-59" value="" style="edgeStyle=orthogonalEdgeStyle;rounded=0;orthogonalLoop=1;jettySize=auto;html=1;" edge="1" parent="1" target="9SDQsjOLmnMu524UX8oW-58">
          <mxGeometry relative="1" as="geometry">
            <mxPoint x="600" y="80" as="sourcePoint" />
            <mxPoint x="483" y="90" as="targetPoint" />
          </mxGeometry>
        </mxCell>
      </root>
    </mxGraphModel>
  </diagram>
</mxfile>
